#usda 1.0
(
    defaultPrim = "World"
    metersPerUnit = 1
    subLayers = [
        @./materials/pbr.usda@
    ]
    upAxis = "Z"
)

def Xform "World"
{
    def Cube "Table" (
        prepend apiSchemas = ["MaterialBindingAPI"]
    )
    {
        rel material:binding = </World/Looks/TableMaterial>
        double size = 1
        float3 xformOp:scale = (0.8, 0.6, 0.04)
        double3 xformOp:translate = (0.5, 0, 0.4)
        uniform token[] xformOpOrder = ["xformOp:translate", "xformOp:scale"]
    }

    def Cube "TablePedestal" (
        prepend apiSchemas = ["MaterialBindingAPI"]
    )
    {
        rel material:binding = </World/Looks/TableMaterial>
        double size = 1
        float3 xformOp:scale = (0.1, 0.1, 0.38)
        double3 xformOp:translate = (0.5, 0, 0.19)
        uniform token[] xformOpOrder = ["xformOp:translate", "xformOp:scale"]
    }

    def Cube "Cube" (
        prepend apiSchemas = ["MaterialBindingAPI"]
    )
    {
        rel material:binding = </World/Looks/CubeMaterial>
        double size = 1
        float3 xformOp:scale = (0.06, 0.06, 0.06)
        double3 xformOp:translate = (0.5, 0, 0.45000000000000007)
        uniform token[] xformOpOrder = ["xformOp:translate", "xformOp:scale"]
    }

    def "Lights"
    {
        def DomeLight "Dome"
        {
            color3f inputs:color = (0.85, 0.83, 0.8)
            float inputs:intensity = 1000
        }

        def RectLight "KeyLight"
        {
            float inputs:colorTemperature = 5500
            bool inputs:enableColorTemperature = 1
            float inputs:height = 0.4
            float inputs:intensity = 3000
            float inputs:width = 0.4
            double3 xformOp:translate = (0.2, -0.3, 1.4)
            uniform token[] xformOpOrder = ["xformOp:translate"]
        }

        def RectLight "FillLight"
        {
            float inputs:colorTemperature = 5500
            bool inputs:enableColorTemperature = 1
            float inputs:height = 0.6
            float inputs:intensity = 800
            float inputs:width = 0.6
            double3 xformOp:translate = (0.9, 0.4, 1.2000000000000002)
            uniform token[] xformOpOrder = ["xformOp:translate"]
        }
    }

    def "Cameras"
    {
        def Camera "Camera1"
        {
            float2 clippingRange = (0.01, 100)
            matrix4d xformOp:transform = ( (-0.8944271909999159, 0.4472135954999579, 0, 0), (-0.166981916425345, -0.33396383285069, 0.9276773134741388, 0), (0.41486990682251124, 0.8297398136450225, 0.37338291614026015, -0), (1.5000000000000004, 2.0000000000000004, 1.4000000000000004, 1.0000000000000002) )
            uniform token[] xformOpOrder = ["xformOp:transform"]
        }

        def Camera "Camera2"
        {
            float2 clippingRange = (0.01, 100)
            matrix4d xformOp:transform = ( (-1, 0, 0, 0), (0, -0.18884739365012448, 0.9820064469806475, -0), (0, 0.9820064469806475, 0.18884739365012448, -0), (0.5, 2.6000000000000005, 1, 1) )
            uniform token[] xformOpOrder = ["xformOp:transform"]
        }

        def Camera "Camera3"
        {
            float2 clippingRange = (0.01, 100)
            matrix4d xformOp:transform = ( (1, 0, 0, 0), (0, 1, 0, 0), (0, 0, 1, 0), (0.5, -0, 2.4, 1) )
            uniform token[] xformOpOrder = ["xformOp:transform"]
        }
    }
}

